<svg xmlns="http://www.w3.org/2000/svg" xmlns:xlink="http://www.w3.org/1999/xlink" width="992" zoomAndPan="magnify" viewBox="0 0 744 752.249981" height="1003" preserveAspectRatio="xMidYMid meet" version="1.0"><defs><clipPath id="4ac19fefcb"><path d="M 41.480469 49.089844 L 743.53125 49.089844 L 743.53125 751.140625 L 41.480469 751.140625 Z M 41.480469 49.089844 " clip-rule="nonzero"/></clipPath><clipPath id="0fa3f7900a"><path d="M 0.371094 0 L 702.421875 0 L 702.421875 702.050781 L 0.371094 702.050781 Z M 0.371094 0 " clip-rule="nonzero"/></clipPath><clipPath id="3615b10c45"><path d="M 58.667969 49.089844 L 643.832031 49.089844 L 643.832031 634.257812 L 58.667969 634.257812 Z M 58.667969 49.089844 " clip-rule="nonzero"/></clipPath><clipPath id="8be775de74"><path d="M 603 252 L 625.652344 252 L 625.652344 472 L 603 472 Z M 603 252 " clip-rule="nonzero"/></clipPath><clipPath id="eaef554680"><path d="M 77.199219 252 L 100 252 L 100 472 L 77.199219 472 Z M 77.199219 252 " clip-rule="nonzero"/></clipPath></defs><path fill="#ff0000" d="M 735.015625 406.121094 C 731.273438 412.269531 724.90625 415.898438 718.621094 419.410156 C 721.28125 423.25 721.179688 428.410156 719.996094 432.929688 C 718.8125 437.453125 716.660156 441.675781 715.457031 446.199219 C 714.253906 450.71875 714.5625 456.695312 717.183594 460.554688 C 713.574219 460.707031 710.546875 463.601562 709.074219 466.917969 C 707.617188 470.238281 707.382812 473.921875 707.074219 477.527344 C 706.765625 481.136719 706.277344 484.863281 704.398438 487.949219 L 704.476562 487.964844 C 709.65625 490.019531 715.050781 492.214844 718.71875 496.421875 C 719.785156 497.664062 720.699219 499.0625 721.261719 500.574219 C 722.542969 504.066406 722.019531 508.027344 720.582031 511.4375 C 719.144531 514.875 716.875 517.878906 714.648438 520.84375 C 717.558594 523.738281 722.328125 526.996094 723.648438 530.894531 C 724.480469 533.378906 724.558594 536.054688 724.929688 538.652344 C 726.210938 547.851562 731.097656 556.503906 730.789062 565.796875 L 730.789062 565.8125 C 730.769531 566.765625 730.074219 567.558594 729.257812 568.046875 C 728.445312 568.535156 727.53125 568.804688 726.699219 569.230469 C 723.808594 570.707031 722.277344 573.984375 721.671875 577.1875 C 721.070312 580.390625 721.167969 583.6875 720.488281 586.867188 C 719.113281 593.34375 714.148438 598.605469 709.835938 603.648438 C 712.1875 606.597656 714.566406 609.585938 715.90625 613.097656 C 717.246094 616.609375 717.398438 620.78125 715.402344 623.960938 C 712.957031 627.859375 707.078125 629.722656 702.632812 630.890625 C 705.914062 634.070312 709.386719 637.582031 710.042969 642.105469 C 710.488281 645.25 709.519531 648.445312 709.925781 651.589844 C 710.277344 654.304688 711.652344 656.808594 713.417969 658.886719 C 715.179688 660.964844 717.332031 662.710938 719.449219 664.4375 C 715.605469 670.199219 715.996094 678.445312 717.800781 685.140625 C 719.609375 691.832031 722.804688 698.082031 724.574219 704.792969 C 726.84375 713.347656 726.691406 722.527344 724.167969 731 C 712.664062 733.734375 699.332031 733.757812 688.136719 729.933594 C 683 728.171875 678.070312 725.746094 672.753906 724.597656 C 667.4375 723.453125 661.035156 723.628906 656.710938 726.90625 C 654.730469 723.648438 651.683594 721.046875 648.152344 719.632812 C 644.058594 717.984375 639.519531 717.925781 635.15625 717.226562 C 630.792969 716.53125 625.941406 714.648438 623.480469 710.980469 C 622.429688 715.574219 620.277344 719.921875 617.230469 723.53125 C 616.144531 724.8125 614.824219 726.074219 613.160156 726.324219 C 611.898438 726.5 610.65625 726.074219 609.472656 725.609375 C 605.011719 723.863281 600.605469 721.1875 596.683594 718.429688 C 594.359375 718.3125 592.261719 719.824219 590.652344 721.496094 C 589.042969 723.164062 587.640625 725.125 585.6875 726.363281 C 580.660156 729.527344 573.832031 727.0625 568.304688 729.214844 C 563.761719 730.976562 559.921875 735.265625 557.441406 739.460938 C 555.847656 738.101562 553.714844 737.632812 551.640625 737.460938 C 549.5625 737.289062 547.46875 737.363281 545.433594 736.898438 C 542.386719 736.21875 539.710938 734.414062 536.742188 733.464844 C 532.535156 732.105469 527.917969 732.511719 523.726562 731.136719 C 518.972656 729.582031 515.25 725.898438 511.71875 722.347656 C 507.3125 725.648438 505.277344 726.382812 500.152344 728.417969 C 498.097656 729.234375 495.867188 729.949219 493.710938 729.429688 C 491.929688 728.984375 490.453125 727.738281 489.152344 726.441406 C 485.328125 722.644531 482.246094 717.75 480.109375 712.785156 C 474.523438 715.65625 467.578125 713.527344 461.582031 715.425781 C 457.394531 716.765625 453.648438 720.316406 452.191406 724.488281 C 449.164062 721.59375 444.335938 721.574219 440.335938 722.820312 C 436.339844 724.0625 432.730469 726.332031 428.734375 727.574219 C 423.320312 729.242188 417.304688 728.894531 412.128906 726.589844 L 412.148438 725.464844 C 410.1875 732.917969 404.851562 739.414062 397.929688 742.773438 C 395.96875 743.722656 393.796875 744.4375 391.664062 744.113281 C 389.859375 743.820312 388.246094 742.828125 386.769531 741.761719 C 381.355469 737.902344 376.742188 732.914062 373.289062 727.210938 C 367.136719 728.257812 360.871094 729.308594 355.144531 726.820312 C 352.214844 725.5625 349.675781 723.449219 346.6875 722.339844 C 341.996094 720.613281 336.367188 721.734375 332.679688 725.113281 C 331.941406 721.523438 328.855469 718.539062 325.519531 717.046875 C 322.164062 715.550781 318.457031 715.144531 314.8125 714.757812 C 311.164062 714.367188 307.457031 713.941406 304.121094 712.40625 C 303.539062 717.742188 301.40625 721.835938 297.796875 725.8125 C 296.34375 727.421875 294.578125 728.894531 292.445312 729.226562 C 291.066406 729.441406 289.648438 729.148438 288.3125 728.785156 C 283.421875 727.464844 278.785156 725.253906 274.691406 722.28125 C 268.015625 724.570312 264.058594 731.554688 257.171875 733.089844 C 253.933594 733.804688 250.480469 733.167969 247.242188 733.886719 C 244.699219 734.445312 242.429688 735.785156 239.925781 736.523438 C 235.523438 737.824219 230.519531 737.222656 226.578125 739.570312 C 224.5 734.859375 219.441406 731.015625 214.492188 729.597656 C 211.582031 728.765625 208.496094 728.703125 205.53125 728.066406 C 199.867188 726.863281 193.675781 722.496094 190.242188 717.84375 C 187.703125 720.195312 187.234375 720.640625 184.230469 722.386719 C 181.21875 724.132812 177.691406 725.160156 174.28125 724.65625 C 171.15625 724.191406 168.300781 722.402344 166.304688 719.980469 C 164.285156 717.554688 162.660156 713.519531 162.25 710.394531 C 159.628906 714.582031 154.820312 717.167969 149.914062 717.667969 C 146.558594 718.019531 143.140625 717.476562 139.828125 718.09375 C 135.1875 718.96875 130.285156 722.921875 128.34375 727.210938 C 124.246094 724.183594 118.738281 723.792969 113.675781 724.496094 C 105.542969 725.621094 97.980469 729.171875 90.0625 731.289062 C 80.925781 733.730469 68.15625 733.792969 60.941406 731.015625 C 58.398438 722.539062 58.261719 713.363281 60.535156 704.804688 C 62.316406 698.113281 65.519531 691.847656 67.304688 685.152344 C 69.113281 678.460938 69.519531 670.214844 65.660156 664.453125 C 67.792969 662.726562 69.925781 661 71.691406 658.902344 C 73.457031 656.804688 74.835938 654.324219 75.183594 651.605469 C 75.589844 648.460938 74.601562 645.261719 75.066406 642.117188 C 75.726562 637.597656 79.199219 634.085938 82.476562 630.902344 C 78.015625 629.757812 72.15625 627.875 69.707031 623.976562 C 67.707031 620.792969 67.863281 616.625 69.203125 613.113281 C 70.539062 609.601562 72.925781 606.59375 75.273438 603.664062 C 70.964844 598.617188 66 593.382812 64.621094 586.878906 C 63.941406 583.699219 64.058594 580.402344 63.433594 577.203125 C 62.832031 574 61.300781 570.722656 58.410156 569.246094 C 57.574219 568.820312 56.644531 568.546875 55.847656 568.0625 C 55.035156 567.574219 54.335938 566.777344 54.316406 565.828125 L 54.316406 565.808594 C 53.988281 556.539062 58.875 547.863281 60.175781 538.667969 C 60.546875 536.070312 60.621094 533.394531 61.460938 530.910156 C 62.78125 527.007812 67.53125 523.769531 70.460938 520.859375 C 68.210938 517.890625 65.957031 514.882812 64.527344 511.453125 C 63.09375 508.019531 62.546875 504.0625 63.847656 500.589844 C 64.410156 499.058594 65.320312 497.660156 66.386719 496.4375 C 70.035156 492.226562 75.449219 490.015625 80.628906 487.980469 L 80.710938 487.960938 C 78.828125 484.859375 78.359375 481.152344 78.03125 477.542969 C 77.722656 473.933594 77.488281 470.226562 76.035156 466.933594 C 74.578125 463.632812 71.550781 460.726562 67.921875 460.566406 C 70.542969 456.6875 70.851562 450.730469 69.652344 446.214844 C 68.449219 441.695312 66.292969 437.464844 65.109375 432.945312 C 63.925781 428.421875 63.828125 423.265625 66.488281 419.421875 C 60.199219 415.914062 53.835938 412.285156 50.089844 406.136719 C 48.671875 403.828125 47.703125 401.070312 48.191406 398.414062 C 48.5625 396.394531 49.722656 394.613281 50.984375 392.980469 C 53.039062 390.320312 55.410156 387.914062 58.046875 385.816406 C 59.8125 384.421875 61.710938 383.121094 63.113281 381.359375 C 64.507812 379.59375 65.34375 377.1875 64.585938 375.054688 C 64.179688 371.5 64.296875 367.230469 65.417969 363.820312 C 66.679688 359.996094 69.492188 356.820312 70.636719 352.957031 C 71.957031 348.554688 70.945312 343.351562 67.921875 339.898438 C 70.039062 339.003906 72.230469 338.054688 73.746094 336.328125 C 75.101562 334.773438 75.78125 332.757812 76.304688 330.757812 C 77.78125 325.171875 78.285156 319.371094 78.792969 313.628906 C 78.847656 313.066406 78.890625 312.445312 78.574219 311.960938 C 78.285156 311.476562 76.421875 310.992188 76.070312 311.4375 C 69.707031 309.90625 64.488281 304.375 63.328125 297.917969 C 62.160156 291.457031 65.152344 284.46875 70.601562 280.824219 C 65.84375 277.839844 62.507812 272.597656 60.804688 267.242188 C 59.101562 261.886719 58.554688 256.242188 57.703125 250.691406 C 56.851562 245.140625 55.605469 239.515625 52.71875 234.703125 C 57.238281 231.3125 62.105469 228.03125 63.597656 222.8125 C 64.703125 219.011719 64.449219 214.914062 65.363281 211.054688 C 66.605469 205.71875 70.117188 200.96875 74.832031 198.210938 C 72.503906 195.261719 70.210938 191.4375 69.050781 187.871094 C 67.886719 184.300781 67.867188 180.210938 69.808594 176.992188 C 72.253906 172.894531 77.707031 170.804688 82.363281 169.71875 L 82.554688 169.71875 C 80.246094 168.007812 80.339844 168.125 78.675781 165.800781 C 76.65625 162.96875 75.78125 159.457031 75.257812 156.003906 C 74.734375 152.550781 74.5 149.039062 73.53125 145.683594 C 73.609375 143.296875 72.328125 140.464844 70.328125 139.164062 C 69.007812 138.3125 67.28125 137.769531 66.640625 136.332031 C 66.234375 135.402344 66.425781 134.296875 66.949219 133.441406 C 67.472656 132.589844 68.425781 131.792969 69.316406 131.304688 C 69.027344 121.738281 65.128906 112.703125 62.664062 103.449219 C 59.617188 92.097656 58.683594 80.207031 59.929688 68.527344 C 67.164062 65.753906 80.980469 66.433594 90.117188 68.878906 C 98.03125 70.996094 105.601562 74.542969 113.730469 75.671875 C 118.777344 76.367188 124.285156 75.980469 128.398438 72.957031 C 130.339844 77.261719 135.246094 81.222656 139.882812 82.074219 C 143.203125 82.695312 146.613281 82.152344 149.96875 82.5 C 154.898438 83.003906 159.691406 85.582031 162.308594 89.773438 C 162.734375 86.652344 164.363281 82.636719 166.359375 80.1875 C 168.378906 77.761719 171.226562 76 174.335938 75.511719 C 177.769531 74.988281 181.28125 76.035156 184.285156 77.78125 C 187.296875 79.507812 187.757812 79.953125 190.300781 82.320312 C 193.753906 77.664062 199.921875 73.296875 205.585938 72.09375 C 208.554688 71.472656 211.636719 71.398438 214.550781 70.566406 C 219.515625 69.148438 224.558594 65.328125 226.632812 60.589844 C 230.59375 62.941406 235.578125 62.316406 239.980469 63.636719 C 242.46875 64.378906 244.757812 65.714844 247.296875 66.277344 C 250.554688 66.992188 253.992188 66.355469 257.230469 67.074219 C 264.117188 68.605469 268.074219 75.609375 274.746094 77.878906 C 278.84375 74.914062 283.476562 72.679688 288.367188 71.378906 C 289.726562 71.007812 291.125 70.71875 292.5 70.933594 C 294.632812 71.261719 296.417969 72.742188 297.855469 74.351562 C 301.445312 78.328125 303.597656 82.421875 304.175781 87.753906 C 307.515625 86.226562 311.222656 85.792969 314.867188 85.40625 C 318.511719 85.015625 322.21875 84.609375 325.574219 83.117188 C 328.933594 81.625 331.996094 78.632812 332.738281 75.046875 C 336.425781 78.441406 342.050781 79.550781 346.746094 77.824219 C 349.75 76.71875 352.273438 74.605469 355.203125 73.339844 C 360.925781 70.878906 367.195312 71.921875 373.34375 72.953125 C 376.796875 67.246094 381.414062 62.28125 386.828125 58.402344 C 388.320312 57.332031 389.910156 56.347656 391.71875 56.050781 C 393.871094 55.722656 396.042969 56.441406 397.984375 57.390625 C 404.914062 60.746094 410.246094 67.246094 412.203125 74.699219 L 412.1875 73.574219 C 417.367188 71.265625 423.382812 70.914062 428.792969 72.585938 C 432.789062 73.828125 436.398438 76.097656 440.394531 77.34375 C 444.390625 78.582031 449.203125 78.542969 452.25 75.675781 C 453.6875 79.828125 457.429688 83.398438 461.636719 84.738281 C 467.632812 86.636719 474.578125 84.503906 480.167969 87.375 C 482.300781 82.410156 485.386719 77.539062 489.210938 73.71875 C 490.511719 72.417969 491.984375 71.179688 493.769531 70.734375 C 495.921875 70.210938 498.152344 70.925781 500.207031 71.746094 C 505.308594 73.78125 507.371094 74.519531 511.773438 77.816406 C 515.300781 74.261719 519.007812 70.597656 523.785156 69.023438 C 527.972656 67.648438 532.609375 68.054688 536.800781 66.699219 C 539.765625 65.75 542.445312 63.941406 545.492188 63.261719 C 547.527344 62.820312 549.625 62.894531 551.695312 62.703125 C 553.773438 62.527344 555.910156 62.042969 557.496094 60.703125 C 559.980469 64.890625 563.800781 69.203125 568.359375 70.949219 C 573.910156 73.082031 580.738281 70.621094 585.742188 73.796875 C 587.722656 75.039062 589.097656 77 590.707031 78.667969 C 592.316406 80.332031 594.414062 81.847656 596.742188 81.730469 C 600.65625 79 605.082031 76.316406 609.527344 74.550781 C 610.710938 74.089844 611.953125 73.660156 613.214844 73.835938 C 614.882812 74.070312 616.203125 75.328125 617.289062 76.628906 C 620.335938 80.238281 622.488281 84.585938 623.535156 89.183594 C 625.996094 85.519531 630.851562 83.632812 635.210938 82.933594 C 639.578125 82.238281 644.097656 82.175781 648.210938 80.527344 C 651.738281 79.109375 654.785156 76.511719 656.765625 73.257812 C 661.089844 76.554688 667.492188 76.730469 672.808594 75.5625 C 678.125 74.417969 683.054688 71.972656 688.195312 70.226562 C 699.390625 66.402344 713.761719 65.785156 725.289062 68.519531 C 726.53125 80.195312 725.597656 92.089844 722.558594 103.4375 C 720.070312 112.691406 716.171875 121.714844 715.902344 131.296875 C 716.796875 131.761719 717.726562 132.554688 718.269531 133.429688 C 718.8125 134.304688 718.984375 135.410156 718.578125 136.324219 C 717.9375 137.777344 716.210938 138.304688 714.890625 139.15625 C 712.890625 140.457031 711.609375 143.289062 711.691406 145.675781 C 710.738281 149.03125 710.503906 152.539062 709.960938 155.996094 C 709.417969 159.449219 708.566406 162.941406 706.546875 165.789062 C 704.878906 168.117188 704.972656 168.003906 702.664062 169.707031 L 702.859375 169.707031 C 707.515625 170.792969 712.945312 172.890625 715.410156 176.980469 C 717.328125 180.203125 717.328125 184.296875 716.167969 187.863281 C 715.003906 191.433594 712.714844 195.253906 710.386719 198.203125 C 715.101562 200.957031 718.617188 205.726562 719.855469 211.046875 C 720.75 214.90625 720.515625 218.976562 721.621094 222.800781 C 723.132812 228 727.988281 231.300781 732.503906 234.695312 C 729.59375 239.507812 728.371094 245.132812 727.519531 250.683594 C 726.667969 256.234375 726.125 261.878906 724.414062 267.230469 C 722.707031 272.585938 719.390625 277.824219 714.621094 280.816406 C 720.070312 284.460938 723.039062 291.46875 721.894531 297.90625 C 720.746094 304.347656 715.527344 309.898438 709.148438 311.429688 C 708.796875 310.984375 706.933594 311.464844 706.644531 311.953125 C 706.355469 312.441406 706.390625 313.039062 706.429688 313.617188 C 706.933594 319.378906 707.457031 325.160156 708.914062 330.75 C 709.4375 332.746094 710.117188 334.765625 711.472656 336.320312 C 712.984375 338.046875 715.179688 338.996094 717.296875 339.890625 C 714.269531 343.34375 713.261719 348.542969 714.582031 352.949219 C 715.730469 356.808594 718.542969 359.992188 719.800781 363.8125 C 720.925781 367.203125 721.039062 371.472656 720.632812 375.042969 C 719.875 377.160156 720.714844 379.582031 722.109375 381.347656 C 723.503906 383.113281 725.40625 384.394531 727.171875 385.808594 C 729.792969 387.90625 732.175781 390.3125 734.234375 392.96875 C 735.492188 394.597656 736.660156 396.386719 737.027344 398.402344 C 737.421875 401.058594 736.433594 403.789062 735.015625 406.121094 Z M 735.015625 406.121094 " fill-opacity="1" fill-rule="nonzero"/><g clip-path="url(#4ac19fefcb)"><path fill="#000000" d="M 41.480469 49.089844 L 743.53125 49.089844 L 743.53125 751.140625 L 41.480469 751.140625 Z M 41.480469 49.089844 " fill-opacity="1" fill-rule="nonzero"/></g><path fill="#ff0000" d="M 693.90625 357.03125 C 690.164062 363.179688 683.796875 366.808594 677.511719 370.316406 C 680.171875 374.160156 680.070312 379.316406 678.886719 383.839844 C 677.703125 388.359375 675.550781 392.585938 674.347656 397.109375 C 673.144531 401.628906 673.453125 407.605469 676.074219 411.460938 C 672.464844 411.617188 669.4375 414.507812 667.964844 417.828125 C 666.507812 421.144531 666.273438 424.828125 665.964844 428.4375 C 665.65625 432.046875 665.167969 435.773438 663.289062 438.855469 L 663.367188 438.875 C 668.550781 440.929688 673.941406 443.125 677.609375 447.332031 C 678.675781 448.574219 679.589844 449.972656 680.152344 451.484375 C 681.433594 454.976562 680.910156 458.933594 679.472656 462.347656 C 678.035156 465.78125 675.765625 468.785156 673.539062 471.753906 C 676.449219 474.648438 681.21875 477.902344 682.539062 481.804688 C 683.371094 484.289062 683.453125 486.964844 683.820312 489.5625 C 685.101562 498.757812 689.988281 507.414062 689.679688 516.703125 L 689.679688 516.722656 C 689.660156 517.671875 688.964844 518.46875 688.148438 518.957031 C 687.335938 519.441406 686.421875 519.714844 685.589844 520.140625 C 682.699219 521.613281 681.167969 524.894531 680.5625 528.097656 C 679.960938 531.296875 680.058594 534.597656 679.378906 537.773438 C 678.003906 544.253906 673.039062 549.511719 668.726562 554.558594 C 671.078125 557.507812 673.457031 560.492188 674.796875 564.007812 C 676.136719 567.519531 676.289062 571.6875 674.292969 574.871094 C 671.847656 578.769531 665.96875 580.632812 661.523438 581.796875 C 664.804688 584.980469 668.277344 588.492188 668.933594 593.011719 C 669.378906 596.15625 668.410156 599.355469 668.816406 602.5 C 669.167969 605.214844 670.542969 607.71875 672.308594 609.796875 C 674.070312 611.875 676.226562 613.621094 678.339844 615.347656 C 674.496094 621.109375 674.886719 629.355469 676.691406 636.046875 C 678.5 642.742188 681.695312 648.988281 683.464844 655.699219 C 685.734375 664.257812 685.582031 673.433594 683.058594 681.910156 C 671.554688 684.644531 658.222656 684.667969 647.027344 680.84375 C 641.890625 679.078125 636.960938 676.65625 631.644531 675.507812 C 626.328125 674.359375 619.925781 674.539062 615.601562 677.816406 C 613.621094 674.558594 610.574219 671.957031 607.042969 670.542969 C 602.949219 668.894531 598.410156 668.832031 594.046875 668.136719 C 589.683594 667.4375 584.832031 665.558594 582.371094 661.886719 C 581.320312 666.484375 579.167969 670.832031 576.121094 674.441406 C 575.035156 675.722656 573.714844 676.980469 572.050781 677.234375 C 570.789062 677.40625 569.546875 676.980469 568.363281 676.519531 C 563.902344 674.773438 559.496094 672.097656 555.574219 669.339844 C 553.25 669.222656 551.152344 670.734375 549.542969 672.40625 C 547.933594 674.070312 546.53125 676.03125 544.578125 677.273438 C 539.550781 680.4375 532.722656 677.96875 527.195312 680.121094 C 522.652344 681.886719 518.8125 686.175781 516.332031 690.367188 C 514.738281 689.011719 512.605469 688.542969 510.53125 688.371094 C 508.453125 688.195312 506.363281 688.269531 504.324219 687.808594 C 501.277344 687.128906 498.601562 685.324219 495.632812 684.371094 C 491.425781 683.015625 486.808594 683.421875 482.617188 682.046875 C 477.863281 680.492188 474.140625 676.808594 470.609375 673.257812 C 466.203125 676.554688 464.167969 677.292969 459.042969 679.328125 C 456.988281 680.140625 454.757812 680.859375 452.601562 680.339844 C 450.820312 679.894531 449.34375 678.648438 448.042969 677.351562 C 444.21875 673.550781 441.136719 668.660156 439.003906 663.695312 C 433.414062 666.5625 426.46875 664.433594 420.472656 666.335938 C 416.285156 667.671875 412.539062 671.226562 411.082031 675.394531 C 408.054688 672.503906 403.226562 672.484375 399.230469 673.730469 C 395.230469 674.96875 391.625 677.238281 387.625 678.484375 C 382.210938 680.152344 376.195312 679.804688 371.019531 677.496094 L 371.039062 676.375 C 369.078125 683.824219 363.742188 690.320312 356.820312 693.679688 C 354.859375 694.632812 352.6875 695.347656 350.554688 695.019531 C 348.75 694.730469 347.136719 693.738281 345.664062 692.671875 C 340.246094 688.808594 335.632812 683.824219 332.179688 678.121094 C 326.027344 679.167969 319.761719 680.214844 314.039062 677.730469 C 311.105469 676.472656 308.566406 674.355469 305.578125 673.246094 C 300.886719 671.519531 295.257812 672.644531 291.570312 676.023438 C 290.832031 672.433594 287.746094 669.445312 284.410156 667.953125 C 281.054688 666.460938 277.347656 666.054688 273.703125 665.664062 C 270.054688 665.277344 266.347656 664.851562 263.011719 663.316406 C 262.433594 668.652344 260.296875 672.746094 256.6875 676.71875 C 255.234375 678.328125 253.46875 679.804688 251.335938 680.136719 C 249.957031 680.351562 248.539062 680.058594 247.203125 679.691406 C 242.3125 678.371094 237.675781 676.164062 233.582031 673.191406 C 226.90625 675.480469 222.949219 682.460938 216.0625 683.996094 C 212.824219 684.714844 209.371094 684.078125 206.132812 684.792969 C 203.589844 685.355469 201.320312 686.695312 198.816406 687.433594 C 194.414062 688.734375 189.410156 688.128906 185.46875 690.480469 C 183.390625 685.765625 178.332031 681.925781 173.382812 680.507812 C 170.472656 679.671875 167.386719 679.613281 164.421875 678.976562 C 158.757812 677.773438 152.566406 673.40625 149.136719 668.753906 C 146.59375 671.105469 146.125 671.546875 143.121094 673.292969 C 140.109375 675.039062 136.582031 676.070312 133.171875 675.5625 C 130.046875 675.101562 127.195312 673.3125 125.195312 670.886719 C 123.179688 668.464844 121.550781 664.429688 121.140625 661.304688 C 118.519531 665.492188 113.710938 668.074219 108.804688 668.578125 C 105.449219 668.925781 102.03125 668.382812 98.71875 669.003906 C 94.082031 669.878906 89.175781 673.832031 87.234375 678.121094 C 83.136719 675.089844 77.628906 674.703125 72.566406 675.40625 C 64.433594 676.527344 56.871094 680.082031 48.953125 682.195312 C 39.816406 684.640625 27.046875 684.699219 19.832031 681.925781 C 17.289062 673.449219 17.152344 664.269531 19.425781 655.714844 C 21.207031 649.023438 24.410156 642.753906 26.195312 636.0625 C 28.003906 629.367188 28.410156 621.121094 24.550781 615.359375 C 26.683594 613.632812 28.816406 611.90625 30.582031 609.808594 C 32.347656 607.714844 33.726562 605.234375 34.074219 602.511719 C 34.480469 599.367188 33.492188 596.171875 33.957031 593.027344 C 34.617188 588.503906 38.089844 584.996094 41.367188 581.8125 C 36.90625 580.664062 31.046875 578.785156 28.597656 574.886719 C 26.597656 571.703125 26.753906 567.53125 28.09375 564.023438 C 29.429688 560.511719 31.816406 557.503906 34.164062 554.574219 C 29.855469 549.527344 24.890625 544.289062 23.511719 537.789062 C 22.832031 534.605469 22.949219 531.3125 22.324219 528.109375 C 21.722656 524.910156 20.191406 521.632812 17.300781 520.152344 C 16.464844 519.726562 15.535156 519.457031 14.738281 518.96875 C 13.925781 518.484375 13.226562 517.6875 13.207031 516.738281 L 13.207031 516.71875 C 12.882812 507.445312 17.765625 498.773438 19.070312 489.578125 C 19.4375 486.980469 19.511719 484.300781 20.351562 481.816406 C 21.671875 477.917969 26.421875 474.679688 29.351562 471.769531 C 27.101562 468.800781 24.847656 465.792969 23.417969 462.359375 C 21.984375 458.929688 21.4375 454.96875 22.738281 451.496094 C 23.300781 449.96875 24.210938 448.566406 25.277344 447.347656 C 28.925781 443.132812 34.339844 440.925781 39.523438 438.890625 L 39.601562 438.871094 C 37.71875 435.765625 37.25 432.058594 36.925781 428.453125 C 36.613281 424.84375 36.382812 421.136719 34.925781 417.839844 C 33.46875 414.542969 30.441406 411.636719 26.8125 411.476562 C 29.433594 407.597656 29.746094 401.636719 28.542969 397.121094 C 27.339844 392.605469 25.1875 388.375 24 383.851562 C 22.816406 379.332031 22.71875 374.175781 25.378906 370.332031 C 19.09375 366.820312 12.726562 363.195312 8.980469 357.042969 C 7.5625 354.738281 6.59375 351.980469 7.082031 349.320312 C 7.453125 347.304688 8.613281 345.519531 9.875 343.886719 C 11.929688 341.230469 14.300781 338.824219 16.9375 336.726562 C 18.703125 335.332031 20.605469 334.03125 22.003906 332.265625 C 23.398438 330.5 24.234375 328.097656 23.476562 325.960938 C 23.070312 322.410156 23.1875 318.140625 24.308594 314.730469 C 25.570312 310.90625 28.382812 307.726562 29.527344 303.867188 C 30.847656 299.460938 29.839844 294.261719 26.8125 290.808594 C 28.929688 289.914062 31.121094 288.964844 32.636719 287.238281 C 33.992188 285.683594 34.671875 283.664062 35.195312 281.667969 C 36.671875 276.078125 37.175781 270.28125 37.683594 264.539062 C 37.738281 263.976562 37.78125 263.351562 37.46875 262.871094 C 37.175781 262.382812 35.3125 261.902344 34.960938 262.347656 C 28.597656 260.816406 23.378906 255.285156 22.21875 248.824219 C 21.054688 242.367188 24.042969 235.378906 29.492188 231.734375 C 24.738281 228.746094 21.398438 223.503906 19.695312 218.148438 C 17.992188 212.796875 17.445312 207.152344 16.59375 201.601562 C 15.742188 196.050781 14.496094 190.425781 11.609375 185.613281 C 16.128906 182.21875 20.996094 178.9375 22.488281 173.71875 C 23.59375 169.917969 23.339844 165.824219 24.253906 161.964844 C 25.496094 156.628906 29.007812 151.875 33.722656 149.121094 C 31.394531 146.171875 29.101562 142.347656 27.941406 138.78125 C 26.777344 135.210938 26.757812 131.121094 28.699219 127.898438 C 31.144531 123.804688 36.597656 121.710938 41.253906 120.625 L 41.445312 120.625 C 39.136719 118.917969 39.230469 119.035156 37.566406 116.707031 C 35.546875 113.878906 34.671875 110.367188 34.148438 106.914062 C 33.625 103.457031 33.390625 99.949219 32.421875 96.59375 C 32.5 94.207031 31.21875 91.375 29.21875 90.074219 C 27.898438 89.222656 26.171875 88.679688 25.53125 87.242188 C 25.125 86.308594 25.316406 85.207031 25.839844 84.347656 C 26.363281 83.496094 27.316406 82.703125 28.210938 82.214844 C 27.917969 72.648438 24.019531 63.609375 21.554688 54.355469 C 18.507812 43.007812 17.574219 31.113281 18.820312 19.4375 C 26.054688 16.660156 39.871094 17.339844 49.007812 19.789062 C 56.921875 21.902344 64.492188 25.453125 72.621094 26.578125 C 77.667969 27.277344 83.175781 26.886719 87.289062 23.863281 C 89.230469 28.171875 94.136719 32.128906 98.773438 32.980469 C 102.09375 33.605469 105.503906 33.0625 108.859375 33.410156 C 113.789062 33.914062 118.582031 36.492188 121.199219 40.679688 C 121.625 37.558594 123.253906 33.542969 125.25 31.097656 C 127.269531 28.671875 130.117188 26.90625 133.226562 26.421875 C 136.660156 25.894531 140.171875 26.945312 143.175781 28.691406 C 146.1875 30.417969 146.648438 30.863281 149.191406 33.230469 C 152.644531 28.574219 158.8125 24.207031 164.476562 23.003906 C 167.445312 22.382812 170.527344 22.304688 173.441406 21.472656 C 178.40625 20.054688 183.449219 16.234375 185.523438 11.5 C 189.484375 13.847656 194.46875 13.226562 198.871094 14.546875 C 201.359375 15.285156 203.648438 16.625 206.1875 17.1875 C 209.445312 17.902344 212.882812 17.265625 216.121094 17.980469 C 223.007812 19.511719 226.964844 26.519531 233.636719 28.789062 C 237.734375 25.820312 242.367188 23.589844 247.257812 22.289062 C 248.617188 21.917969 250.015625 21.628906 251.390625 21.84375 C 253.523438 22.171875 255.308594 23.648438 256.746094 25.261719 C 260.335938 29.238281 262.488281 33.328125 263.066406 38.664062 C 266.40625 37.132812 270.113281 36.703125 273.757812 36.316406 C 277.402344 35.925781 281.109375 35.519531 284.46875 34.027344 C 287.824219 32.53125 290.886719 29.542969 291.628906 25.957031 C 295.316406 29.351562 300.941406 30.460938 305.636719 28.734375 C 308.640625 27.628906 311.164062 25.511719 314.09375 24.25 C 319.816406 21.785156 326.085938 22.832031 332.234375 23.859375 C 335.6875 18.15625 340.304688 13.1875 345.71875 9.308594 C 347.210938 8.242188 348.800781 7.253906 350.609375 6.960938 C 352.761719 6.632812 354.933594 7.347656 356.875 8.296875 C 363.804688 11.652344 369.140625 18.15625 371.09375 25.605469 L 371.078125 24.484375 C 376.257812 22.175781 382.273438 21.824219 387.683594 23.496094 C 391.679688 24.734375 395.289062 27.003906 399.285156 28.25 C 403.28125 29.492188 408.09375 29.453125 411.140625 26.585938 C 412.578125 30.734375 416.320312 34.308594 420.527344 35.644531 C 426.523438 37.546875 433.46875 35.410156 439.058594 38.285156 C 441.191406 33.320312 444.277344 28.445312 448.101562 24.628906 C 449.402344 23.328125 450.875 22.085938 452.660156 21.640625 C 454.8125 21.117188 457.042969 21.832031 459.097656 22.652344 C 464.199219 24.6875 466.261719 25.429688 470.664062 28.722656 C 474.195312 25.171875 477.898438 21.507812 482.675781 19.933594 C 486.863281 18.558594 491.5 18.964844 495.691406 17.609375 C 498.65625 16.65625 501.335938 14.851562 504.382812 14.171875 C 506.417969 13.726562 508.515625 13.800781 510.585938 13.609375 C 512.664062 13.4375 514.800781 12.949219 516.386719 11.613281 C 518.871094 15.800781 522.691406 20.113281 527.25 21.855469 C 532.800781 23.992188 539.628906 21.53125 544.632812 24.707031 C 546.613281 25.949219 547.988281 27.910156 549.597656 29.574219 C 551.207031 31.242188 553.304688 32.757812 555.632812 32.640625 C 559.546875 29.90625 563.972656 27.226562 568.417969 25.460938 C 569.601562 24.996094 570.84375 24.566406 572.105469 24.746094 C 573.773438 24.980469 575.09375 26.238281 576.179688 27.539062 C 579.226562 31.148438 581.378906 35.496094 582.425781 40.089844 C 584.886719 36.425781 589.742188 34.539062 594.105469 33.84375 C 598.46875 33.144531 602.988281 33.085938 607.101562 31.4375 C 610.628906 30.019531 613.675781 27.421875 615.65625 24.164062 C 619.980469 27.464844 626.382812 27.636719 631.699219 26.472656 C 637.019531 25.324219 641.945312 22.882812 647.085938 21.136719 C 658.28125 17.3125 672.652344 16.695312 684.179688 19.429688 C 685.421875 31.105469 684.492188 43 681.449219 54.347656 C 678.960938 63.601562 675.0625 72.625 674.792969 82.207031 C 675.6875 82.667969 676.617188 83.464844 677.160156 84.339844 C 677.703125 85.214844 677.878906 86.320312 677.46875 87.230469 C 676.828125 88.6875 675.101562 89.210938 673.78125 90.0625 C 671.78125 91.363281 670.5 94.195312 670.582031 96.582031 C 669.628906 99.9375 669.394531 103.449219 668.851562 106.902344 C 668.308594 110.359375 667.457031 113.847656 665.4375 116.699219 C 663.769531 119.027344 663.863281 118.914062 661.558594 120.617188 L 661.75 120.617188 C 666.40625 121.703125 671.835938 123.800781 674.300781 127.890625 C 676.21875 131.109375 676.21875 135.207031 675.058594 138.773438 C 673.894531 142.34375 671.605469 146.164062 669.277344 149.109375 C 673.992188 151.867188 677.507812 156.636719 678.746094 161.953125 C 679.640625 165.816406 679.40625 169.886719 680.511719 173.710938 C 682.023438 178.910156 686.878906 182.210938 691.394531 185.601562 C 688.484375 190.414062 687.261719 196.039062 686.410156 201.589844 C 685.558594 207.140625 685.015625 212.785156 683.304688 218.140625 C 681.597656 223.496094 678.28125 228.734375 673.511719 231.722656 C 678.960938 235.371094 681.929688 242.375 680.785156 248.816406 C 679.636719 255.257812 674.417969 260.808594 668.039062 262.335938 C 667.6875 261.894531 665.824219 262.375 665.535156 262.863281 C 665.246094 263.347656 665.28125 263.949219 665.320312 264.527344 C 665.824219 270.289062 666.347656 276.070312 667.804688 281.65625 C 668.328125 283.65625 669.007812 285.671875 670.363281 287.226562 C 671.875 288.953125 674.070312 289.90625 676.1875 290.796875 C 673.160156 294.253906 672.152344 299.453125 673.472656 303.855469 C 674.621094 307.71875 677.433594 310.902344 678.691406 314.71875 C 679.816406 318.113281 679.933594 322.382812 679.523438 325.953125 C 678.765625 328.066406 679.605469 330.492188 681 332.257812 C 682.394531 334.019531 684.296875 335.304688 686.0625 336.71875 C 688.683594 338.8125 691.066406 341.21875 693.125 343.878906 C 694.382812 345.507812 695.550781 347.292969 695.917969 349.3125 C 696.3125 351.964844 695.324219 354.699219 693.90625 357.03125 Z M 693.90625 357.03125 " fill-opacity="1" fill-rule="nonzero"/><g clip-path="url(#0fa3f7900a)"><path fill="#000000" d="M 0.371094 0 L 702.421875 0 L 702.421875 702.050781 L 0.371094 702.050781 Z M 0.371094 0 " fill-opacity="1" fill-rule="nonzero"/></g><path fill="#ff0000" d="M 636.96875 346.796875 C 633.847656 351.925781 628.539062 354.953125 623.296875 357.878906 C 625.515625 361.082031 625.433594 365.382812 624.445312 369.152344 C 623.457031 372.921875 621.660156 376.449219 620.660156 380.21875 C 619.65625 383.988281 619.914062 388.972656 622.097656 392.1875 C 619.089844 392.316406 616.566406 394.726562 615.335938 397.496094 C 614.121094 400.261719 613.925781 403.332031 613.667969 406.34375 C 613.410156 409.351562 613.003906 412.457031 611.4375 415.027344 L 611.503906 415.042969 C 615.824219 416.757812 620.320312 418.589844 623.378906 422.097656 C 624.269531 423.132812 625.03125 424.296875 625.5 425.558594 C 626.566406 428.46875 626.128906 431.773438 624.933594 434.617188 C 623.734375 437.480469 621.839844 439.988281 619.984375 442.460938 C 622.410156 444.871094 626.386719 447.589844 627.488281 450.839844 C 628.183594 452.914062 628.25 455.144531 628.558594 457.3125 C 629.628906 464.980469 633.703125 472.195312 633.445312 479.941406 L 633.445312 479.957031 C 633.429688 480.75 632.847656 481.414062 632.167969 481.820312 C 631.488281 482.226562 630.726562 482.453125 630.03125 482.808594 C 627.621094 484.035156 626.34375 486.773438 625.839844 489.441406 C 625.339844 492.109375 625.421875 494.863281 624.855469 497.511719 C 623.707031 502.914062 619.566406 507.300781 615.972656 511.507812 C 617.929688 513.964844 619.917969 516.457031 621.035156 519.386719 C 622.148438 522.3125 622.277344 525.789062 620.613281 528.445312 C 618.574219 531.695312 613.671875 533.25 609.964844 534.21875 C 612.703125 536.875 615.597656 539.800781 616.144531 543.570312 C 616.515625 546.195312 615.707031 548.859375 616.046875 551.480469 C 616.339844 553.746094 617.484375 555.832031 618.957031 557.566406 C 620.429688 559.300781 622.222656 560.753906 623.988281 562.195312 C 620.785156 567 621.109375 573.875 622.613281 579.457031 C 624.121094 585.039062 626.785156 590.246094 628.261719 595.84375 C 630.152344 602.976562 630.023438 610.632812 627.921875 617.699219 C 618.328125 619.976562 607.214844 619.996094 597.878906 616.808594 C 593.59375 615.335938 589.484375 613.316406 585.050781 612.359375 C 580.617188 611.402344 575.277344 611.550781 571.671875 614.285156 C 570.023438 611.566406 567.480469 609.398438 564.539062 608.21875 C 561.125 606.84375 557.339844 606.792969 553.699219 606.214844 C 550.0625 605.632812 546.015625 604.0625 543.964844 601.003906 C 543.089844 604.835938 541.292969 608.460938 538.753906 611.46875 C 537.847656 612.539062 536.746094 613.589844 535.359375 613.800781 C 534.308594 613.945312 533.269531 613.589844 532.28125 613.203125 C 528.5625 611.746094 524.890625 609.515625 521.621094 607.214844 C 519.679688 607.117188 517.933594 608.378906 516.589844 609.773438 C 515.246094 611.160156 514.082031 612.796875 512.449219 613.832031 C 508.257812 616.46875 502.5625 614.414062 497.953125 616.207031 C 494.167969 617.679688 490.964844 621.253906 488.898438 624.75 C 487.570312 623.617188 485.789062 623.230469 484.0625 623.085938 C 482.328125 622.941406 480.585938 623.003906 478.886719 622.617188 C 476.347656 622.050781 474.113281 620.542969 471.640625 619.75 C 468.132812 618.621094 464.277344 618.960938 460.785156 617.8125 C 456.820312 616.515625 453.71875 613.445312 450.773438 610.484375 C 447.097656 613.234375 445.402344 613.847656 441.128906 615.542969 C 439.414062 616.222656 437.554688 616.820312 435.757812 616.386719 C 434.269531 616.015625 433.042969 614.980469 431.957031 613.898438 C 428.769531 610.730469 426.195312 606.648438 424.417969 602.507812 C 419.757812 604.902344 413.964844 603.125 408.964844 604.710938 C 405.472656 605.828125 402.351562 608.789062 401.136719 612.265625 C 398.613281 609.855469 394.585938 609.839844 391.253906 610.875 C 387.917969 611.910156 384.910156 613.804688 381.578125 614.84375 C 377.0625 616.230469 372.046875 615.941406 367.730469 614.019531 L 367.746094 613.082031 C 366.109375 619.292969 361.660156 624.710938 355.890625 627.515625 C 354.253906 628.304688 352.445312 628.902344 350.664062 628.628906 C 349.160156 628.386719 347.816406 627.5625 346.585938 626.671875 C 342.070312 623.453125 338.222656 619.292969 335.34375 614.539062 C 330.214844 615.410156 324.988281 616.285156 320.214844 614.214844 C 317.773438 613.164062 315.652344 611.398438 313.164062 610.476562 C 309.25 609.035156 304.558594 609.972656 301.484375 612.789062 C 300.867188 609.796875 298.292969 607.304688 295.511719 606.0625 C 292.714844 604.816406 289.621094 604.476562 286.582031 604.152344 C 283.542969 603.828125 280.453125 603.472656 277.667969 602.195312 C 277.183594 606.640625 275.40625 610.058594 272.394531 613.371094 C 271.183594 614.714844 269.710938 615.941406 267.929688 616.21875 C 266.785156 616.398438 265.601562 616.152344 264.484375 615.847656 C 260.40625 614.75 256.542969 612.90625 253.128906 610.429688 C 247.5625 612.335938 244.261719 618.160156 238.519531 619.4375 C 235.820312 620.035156 232.941406 619.503906 230.238281 620.101562 C 228.121094 620.570312 226.226562 621.6875 224.140625 622.304688 C 220.46875 623.390625 216.296875 622.886719 213.007812 624.84375 C 211.277344 620.914062 207.058594 617.710938 202.933594 616.527344 C 200.503906 615.832031 197.933594 615.78125 195.457031 615.25 C 190.738281 614.25 185.574219 610.609375 182.710938 606.726562 C 180.59375 608.6875 180.203125 609.058594 177.699219 610.515625 C 175.1875 611.96875 172.246094 612.828125 169.402344 612.40625 C 166.796875 612.019531 164.417969 610.53125 162.75 608.507812 C 161.070312 606.484375 159.710938 603.121094 159.371094 600.515625 C 157.183594 604.007812 153.171875 606.164062 149.082031 606.578125 C 146.285156 606.871094 143.4375 606.421875 140.671875 606.933594 C 136.804688 607.664062 132.714844 610.960938 131.097656 614.539062 C 127.679688 612.011719 123.085938 611.6875 118.863281 612.273438 C 112.085938 613.210938 105.78125 616.171875 99.175781 617.9375 C 91.558594 619.972656 80.910156 620.023438 74.894531 617.710938 C 72.773438 610.644531 72.660156 602.988281 74.554688 595.855469 C 76.042969 590.273438 78.710938 585.050781 80.203125 579.46875 C 81.707031 573.886719 82.046875 567.011719 78.828125 562.207031 C 80.605469 560.765625 82.386719 559.328125 83.859375 557.578125 C 85.328125 555.828125 86.480469 553.761719 86.769531 551.492188 C 87.109375 548.871094 86.285156 546.207031 86.671875 543.582031 C 87.222656 539.8125 90.117188 536.886719 92.851562 534.230469 C 89.128906 533.277344 84.246094 531.707031 82.203125 528.457031 C 80.535156 525.800781 80.664062 522.324219 81.78125 519.398438 C 82.898438 516.472656 84.886719 513.960938 86.84375 511.519531 C 83.253906 507.3125 79.113281 502.945312 77.960938 497.523438 C 77.394531 494.871094 77.492188 492.121094 76.972656 489.453125 C 76.46875 486.785156 75.195312 484.050781 72.78125 482.820312 C 72.085938 482.464844 71.3125 482.238281 70.648438 481.832031 C 69.96875 481.425781 69.386719 480.761719 69.371094 479.96875 L 69.371094 479.953125 C 69.097656 472.222656 73.171875 464.992188 74.257812 457.324219 C 74.566406 455.15625 74.628906 452.925781 75.328125 450.851562 C 76.425781 447.601562 80.390625 444.898438 82.832031 442.472656 C 80.953125 440 79.078125 437.488281 77.882812 434.628906 C 76.6875 431.769531 76.230469 428.464844 77.316406 425.570312 C 77.785156 424.292969 78.546875 423.128906 79.4375 422.109375 C 82.476562 418.597656 86.992188 416.753906 91.3125 415.054688 L 91.378906 415.039062 C 89.808594 412.453125 89.417969 409.363281 89.144531 406.355469 C 88.890625 403.34375 88.695312 400.253906 87.480469 397.507812 C 86.265625 394.753906 83.742188 392.332031 80.714844 392.199219 C 82.902344 388.964844 83.160156 383.996094 82.15625 380.230469 C 81.152344 376.464844 79.359375 372.933594 78.371094 369.164062 C 77.382812 365.394531 77.300781 361.09375 79.519531 357.890625 C 74.277344 354.964844 68.96875 351.9375 65.847656 346.808594 C 64.664062 344.886719 63.855469 342.585938 64.261719 340.371094 C 64.570312 338.6875 65.539062 337.203125 66.59375 335.839844 C 68.304688 333.625 70.28125 331.617188 72.480469 329.867188 C 73.953125 328.707031 75.539062 327.621094 76.703125 326.148438 C 77.867188 324.679688 78.566406 322.671875 77.933594 320.894531 C 77.59375 317.929688 77.691406 314.371094 78.628906 311.527344 C 79.679688 308.339844 82.023438 305.6875 82.980469 302.46875 C 84.082031 298.796875 83.238281 294.460938 80.714844 291.578125 C 82.480469 290.835938 84.308594 290.042969 85.570312 288.601562 C 86.703125 287.304688 87.269531 285.625 87.707031 283.957031 C 88.9375 279.296875 89.355469 274.460938 89.777344 269.675781 C 89.824219 269.207031 89.859375 268.6875 89.597656 268.285156 C 89.355469 267.878906 87.804688 267.476562 87.511719 267.847656 C 82.203125 266.570312 77.851562 261.957031 76.882812 256.574219 C 75.914062 251.1875 78.40625 245.359375 82.949219 242.320312 C 78.984375 239.832031 76.199219 235.460938 74.78125 230.996094 C 73.359375 226.53125 72.902344 221.824219 72.191406 217.195312 C 71.484375 212.566406 70.445312 207.875 68.035156 203.863281 C 71.808594 201.035156 75.867188 198.296875 77.109375 193.945312 C 78.03125 190.777344 77.820312 187.363281 78.582031 184.144531 C 79.617188 179.695312 82.546875 175.734375 86.476562 173.433594 C 84.539062 170.976562 82.625 167.789062 81.65625 164.8125 C 80.683594 161.835938 80.667969 158.425781 82.289062 155.738281 C 84.328125 152.324219 88.875 150.582031 92.757812 149.675781 L 92.917969 149.675781 C 90.992188 148.25 91.070312 148.347656 89.679688 146.410156 C 88 144.046875 87.269531 141.121094 86.832031 138.238281 C 86.394531 135.359375 86.199219 132.433594 85.390625 129.632812 C 85.457031 127.644531 84.390625 125.28125 82.722656 124.199219 C 81.621094 123.488281 80.183594 123.035156 79.648438 121.835938 C 79.308594 121.058594 79.46875 120.140625 79.90625 119.425781 C 80.34375 118.714844 81.132812 118.050781 81.878906 117.644531 C 81.636719 109.667969 78.386719 102.132812 76.328125 94.417969 C 73.789062 84.953125 73.011719 75.035156 74.050781 65.300781 C 80.085938 62.984375 91.605469 63.550781 99.222656 65.59375 C 105.824219 67.355469 112.132812 70.3125 118.910156 71.253906 C 123.117188 71.835938 127.710938 71.511719 131.144531 68.992188 C 132.761719 72.582031 136.851562 75.882812 140.71875 76.59375 C 143.488281 77.113281 146.332031 76.660156 149.128906 76.949219 C 153.238281 77.371094 157.234375 79.519531 159.417969 83.011719 C 159.773438 80.410156 161.132812 77.0625 162.796875 75.019531 C 164.480469 73 166.855469 71.527344 169.449219 71.121094 C 172.3125 70.683594 175.238281 71.558594 177.746094 73.015625 C 180.253906 74.453125 180.640625 74.824219 182.757812 76.800781 C 185.640625 72.917969 190.785156 69.277344 195.503906 68.273438 C 197.980469 67.753906 200.550781 67.691406 202.980469 66.996094 C 207.121094 65.8125 211.328125 62.628906 213.054688 58.679688 C 216.359375 60.640625 220.515625 60.121094 224.1875 61.222656 C 226.257812 61.835938 228.167969 62.953125 230.285156 63.421875 C 233.003906 64.019531 235.867188 63.488281 238.566406 64.085938 C 244.3125 65.363281 247.609375 71.203125 253.175781 73.097656 C 256.589844 70.621094 260.453125 68.761719 264.53125 67.675781 C 265.664062 67.367188 266.832031 67.125 267.976562 67.304688 C 269.757812 67.578125 271.246094 68.8125 272.441406 70.152344 C 275.4375 73.472656 277.230469 76.882812 277.714844 81.332031 C 280.5 80.054688 283.589844 79.695312 286.628906 79.371094 C 289.667969 79.046875 292.761719 78.707031 295.558594 77.464844 C 298.355469 76.21875 300.914062 73.726562 301.53125 70.734375 C 304.605469 73.566406 309.296875 74.488281 313.210938 73.050781 C 315.714844 72.128906 317.820312 70.363281 320.261719 69.3125 C 325.035156 67.257812 330.261719 68.128906 335.390625 68.988281 C 338.269531 64.230469 342.117188 60.089844 346.632812 56.855469 C 347.878906 55.964844 349.203125 55.140625 350.710938 54.894531 C 352.507812 54.621094 354.316406 55.21875 355.9375 56.011719 C 361.710938 58.808594 366.160156 64.230469 367.792969 70.441406 L 367.777344 69.507812 C 372.097656 67.582031 377.113281 67.289062 381.625 68.683594 C 384.957031 69.71875 387.964844 71.609375 391.300781 72.648438 C 394.632812 73.683594 398.644531 73.652344 401.183594 71.257812 C 402.382812 74.71875 405.503906 77.699219 409.011719 78.8125 C 414.011719 80.398438 419.804688 78.617188 424.464844 81.015625 C 426.242188 76.875 428.816406 72.8125 432.003906 69.628906 C 433.089844 68.542969 434.316406 67.507812 435.804688 67.136719 C 437.601562 66.699219 439.460938 67.296875 441.175781 67.980469 C 445.429688 69.679688 447.144531 70.292969 450.820312 73.042969 C 453.761719 70.078125 456.851562 67.023438 460.832031 65.710938 C 464.324219 64.566406 468.191406 64.90625 471.6875 63.773438 C 474.160156 62.980469 476.394531 61.472656 478.933594 60.910156 C 480.632812 60.539062 482.378906 60.601562 484.109375 60.441406 C 485.839844 60.296875 487.621094 59.890625 488.945312 58.773438 C 491.015625 62.265625 494.199219 65.859375 498 67.316406 C 502.628906 69.097656 508.324219 67.042969 512.496094 69.695312 C 514.148438 70.726562 515.292969 72.363281 516.636719 73.753906 C 517.980469 75.140625 519.726562 76.40625 521.667969 76.308594 C 524.933594 74.03125 528.621094 71.792969 532.328125 70.320312 C 533.316406 69.933594 534.351562 69.578125 535.40625 69.726562 C 536.792969 69.917969 537.894531 70.96875 538.800781 72.054688 C 541.339844 75.0625 543.136719 78.6875 544.011719 82.523438 C 546.0625 79.464844 550.109375 77.894531 553.746094 77.3125 C 557.390625 76.730469 561.15625 76.679688 564.585938 75.304688 C 567.527344 74.125 570.070312 71.957031 571.71875 69.242188 C 575.324219 71.992188 580.664062 72.136719 585.097656 71.164062 C 589.53125 70.207031 593.640625 68.171875 597.925781 66.714844 C 607.261719 63.527344 619.246094 63.011719 628.859375 65.292969 C 629.894531 75.027344 629.117188 84.945312 626.578125 94.410156 C 624.507812 102.125 621.257812 109.648438 621.03125 117.636719 C 621.773438 118.023438 622.550781 118.6875 623.003906 119.417969 C 623.457031 120.148438 623.601562 121.066406 623.261719 121.828125 C 622.726562 123.042969 621.289062 123.480469 620.1875 124.191406 C 618.519531 125.273438 617.449219 127.636719 617.515625 129.625 C 616.726562 132.425781 616.53125 135.351562 616.078125 138.230469 C 615.625 141.113281 614.914062 144.023438 613.226562 146.402344 C 611.839844 148.339844 611.917969 148.246094 609.992188 149.667969 L 610.152344 149.667969 C 614.035156 150.574219 618.5625 152.320312 620.621094 155.730469 C 622.21875 158.417969 622.21875 161.832031 621.253906 164.804688 C 620.28125 167.785156 618.371094 170.96875 616.433594 173.425781 C 620.363281 175.726562 623.292969 179.703125 624.328125 184.136719 C 625.074219 187.355469 624.878906 190.75 625.796875 193.9375 C 627.058594 198.273438 631.105469 201.027344 634.871094 203.855469 C 632.445312 207.867188 631.425781 212.558594 630.714844 217.1875 C 630.003906 221.816406 629.554688 226.523438 628.128906 230.988281 C 626.703125 235.453125 623.9375 239.820312 619.960938 242.3125 C 624.507812 245.351562 626.980469 251.195312 626.023438 256.566406 C 625.070312 261.933594 620.71875 266.5625 615.398438 267.839844 C 615.105469 267.46875 613.550781 267.871094 613.308594 268.277344 C 613.066406 268.683594 613.097656 269.183594 613.128906 269.667969 C 613.550781 274.46875 613.988281 279.289062 615.203125 283.949219 C 615.640625 285.617188 616.207031 287.296875 617.335938 288.59375 C 618.597656 290.035156 620.429688 290.828125 622.191406 291.570312 C 619.667969 294.453125 618.828125 298.789062 619.929688 302.460938 C 620.886719 305.679688 623.230469 308.335938 624.28125 311.519531 C 625.21875 314.347656 625.316406 317.90625 624.976562 320.886719 C 624.34375 322.648438 625.042969 324.671875 626.203125 326.140625 C 627.367188 327.613281 628.957031 328.683594 630.425781 329.859375 C 632.613281 331.609375 634.597656 333.617188 636.316406 335.832031 C 637.367188 337.191406 638.339844 338.679688 638.644531 340.363281 C 638.972656 342.574219 638.152344 344.855469 636.96875 346.796875 Z M 636.96875 346.796875 " fill-opacity="1" fill-rule="nonzero"/><g clip-path="url(#3615b10c45)"><path fill="#004aad" d="M 58.667969 49.089844 L 644.066406 49.089844 L 644.066406 634.492188 L 58.667969 634.492188 Z M 58.667969 49.089844 " fill-opacity="1" fill-rule="nonzero"/></g><path fill="#ffffff" d="M 603.707031 383.839844 L 603.707031 405.765625 L 581.773438 405.765625 L 581.773438 427.691406 L 559.835938 427.691406 L 559.835938 449.621094 L 537.902344 449.621094 L 537.902344 471.554688 L 515.957031 471.554688 L 515.957031 449.621094 L 494.023438 449.621094 L 494.023438 427.691406 L 472.089844 427.691406 L 472.089844 383.839844 L 230.769531 383.839844 L 230.769531 427.691406 L 208.824219 427.691406 L 208.824219 449.621094 L 186.890625 449.621094 L 186.890625 471.554688 L 164.953125 471.554688 L 164.953125 449.621094 L 143.019531 449.621094 L 143.019531 427.691406 L 121.074219 427.691406 L 121.074219 405.765625 L 99.140625 405.765625 L 99.140625 252.261719 L 121.074219 252.261719 L 121.074219 230.335938 L 143.019531 230.335938 L 143.019531 208.402344 L 230.769531 208.402344 L 230.769531 230.335938 L 252.707031 230.335938 L 252.707031 252.261719 L 450.152344 252.261719 L 450.152344 230.335938 L 472.089844 230.335938 L 472.089844 208.402344 L 559.839844 208.402344 L 559.839844 230.335938 L 581.777344 230.335938 L 581.777344 252.261719 L 603.710938 252.261719 L 603.710938 383.839844 Z M 581.773438 339.976562 L 581.773438 296.125 L 537.902344 296.125 L 537.902344 252.261719 L 494.023438 252.261719 L 494.023438 296.125 L 450.152344 296.125 L 450.152344 339.976562 L 494.023438 339.976562 L 494.023438 383.835938 L 537.902344 383.835938 L 537.902344 339.976562 Z M 406.269531 318.050781 L 406.269531 296.125 L 362.390625 296.125 L 362.390625 318.050781 Z M 340.453125 318.050781 L 340.453125 296.125 L 296.582031 296.125 L 296.582031 318.050781 Z M 230.765625 339.976562 L 230.765625 296.125 L 208.820312 296.125 L 208.820312 274.1875 L 164.953125 274.1875 L 164.953125 296.125 L 143.015625 296.125 L 143.015625 339.976562 L 164.953125 339.976562 L 164.953125 361.902344 L 208.820312 361.902344 L 208.820312 339.976562 Z M 230.765625 339.976562 " fill-opacity="1" fill-rule="nonzero"/><path fill="#dd0512" d="M 559.835938 296.125 L 537.898438 296.125 L 537.898438 339.976562 L 581.773438 339.976562 L 581.773438 296.125 Z M 559.835938 296.125 " fill-opacity="1" fill-rule="nonzero"/><path fill="#ffffff" d="M 537.898438 318.050781 L 537.898438 339.976562 L 494.019531 339.976562 L 494.019531 296.125 L 537.898438 296.125 Z M 537.898438 318.050781 " fill-opacity="1" fill-rule="nonzero"/><path fill="#63bff3" d="M 515.957031 339.976562 L 494.019531 339.976562 L 494.019531 383.839844 L 537.898438 383.839844 L 537.898438 339.976562 Z M 515.957031 339.976562 " fill-opacity="1" fill-rule="nonzero"/><path fill="#39ac37" d="M 515.957031 252.261719 L 494.019531 252.261719 L 494.019531 296.125 L 537.898438 296.125 L 537.898438 252.261719 Z M 515.957031 252.261719 " fill-opacity="1" fill-rule="nonzero"/><path fill="#f4dc1c" d="M 472.085938 296.125 L 450.148438 296.125 L 450.148438 339.976562 L 494.019531 339.976562 L 494.019531 296.125 Z M 472.085938 296.125 " fill-opacity="1" fill-rule="nonzero"/><path fill="#c7c7c5" d="M 581.773438 405.765625 L 581.773438 427.691406 L 559.835938 427.691406 L 559.835938 449.621094 L 537.898438 449.621094 L 537.898438 471.554688 L 515.957031 471.554688 L 515.957031 493.484375 L 581.773438 493.484375 L 581.773438 471.554688 L 603.707031 471.554688 L 603.707031 405.765625 Z M 581.773438 405.765625 " fill-opacity="1" fill-rule="nonzero"/><path fill="#c7c7c5" d="M 494.019531 449.621094 L 515.957031 449.621094 L 515.957031 471.554688 L 494.019531 471.554688 Z M 494.019531 449.621094 " fill-opacity="1" fill-rule="nonzero"/><path fill="#c7c7c5" d="M 472.085938 427.691406 L 494.019531 427.691406 L 494.019531 449.621094 L 472.085938 449.621094 Z M 472.085938 427.691406 " fill-opacity="1" fill-rule="nonzero"/><path fill="#c7c7c5" d="M 472.085938 383.839844 L 230.765625 383.839844 L 230.765625 427.691406 L 252.703125 427.691406 L 252.703125 405.765625 L 450.148438 405.765625 L 450.148438 427.691406 L 472.085938 427.691406 Z M 472.085938 383.839844 " fill-opacity="1" fill-rule="nonzero"/><path fill="#c7c7c5" d="M 208.820312 427.691406 L 230.765625 427.691406 L 230.765625 449.621094 L 208.820312 449.621094 Z M 208.820312 427.691406 " fill-opacity="1" fill-rule="nonzero"/><path fill="#c7c7c5" d="M 186.886719 449.621094 L 208.820312 449.621094 L 208.820312 471.554688 L 186.886719 471.554688 Z M 186.886719 449.621094 " fill-opacity="1" fill-rule="nonzero"/><path fill="#c7c7c5" d="M 164.953125 449.621094 L 143.011719 449.621094 L 143.011719 427.691406 L 121.070312 427.691406 L 121.070312 405.765625 L 99.132812 405.765625 L 99.132812 471.554688 L 121.070312 471.554688 L 121.070312 493.484375 L 186.886719 493.484375 L 186.886719 471.554688 L 164.953125 471.554688 Z M 164.953125 449.621094 " fill-opacity="1" fill-rule="nonzero"/><g clip-path="url(#8be775de74)"><path fill="#000000" d="M 603.707031 252.261719 L 603.707031 471.554688 L 625.652344 471.554688 L 625.652344 252.261719 Z M 603.707031 252.261719 " fill-opacity="1" fill-rule="nonzero"/></g><path fill="#000000" d="M 581.773438 471.554688 L 603.707031 471.554688 L 603.707031 493.480469 L 581.773438 493.480469 Z M 581.773438 471.554688 " fill-opacity="1" fill-rule="nonzero"/><path fill="#000000" d="M 581.773438 230.335938 L 603.707031 230.335938 L 603.707031 252.261719 L 581.773438 252.261719 Z M 581.773438 230.335938 " fill-opacity="1" fill-rule="nonzero"/><path fill="#000000" d="M 559.835938 208.398438 L 581.773438 208.398438 L 581.773438 230.332031 L 559.835938 230.332031 Z M 559.835938 208.398438 " fill-opacity="1" fill-rule="nonzero"/><path fill="#000000" d="M 537.898438 493.484375 L 515.957031 493.484375 L 515.957031 515.410156 L 581.773438 515.410156 L 581.773438 493.484375 Z M 537.898438 493.484375 " fill-opacity="1" fill-rule="nonzero"/><path fill="#000000" d="M 494.019531 471.554688 L 515.957031 471.554688 L 515.957031 493.480469 L 494.019531 493.480469 Z M 494.019531 471.554688 " fill-opacity="1" fill-rule="nonzero"/><path fill="#000000" d="M 515.957031 208.398438 L 559.835938 208.398438 L 559.835938 186.472656 L 472.085938 186.472656 L 472.085938 208.398438 Z M 515.957031 208.398438 " fill-opacity="1" fill-rule="nonzero"/><path fill="#000000" d="M 472.085938 449.621094 L 494.019531 449.621094 L 494.019531 471.554688 L 472.085938 471.554688 Z M 472.085938 449.621094 " fill-opacity="1" fill-rule="nonzero"/><path fill="#000000" d="M 450.148438 427.691406 L 472.085938 427.691406 L 472.085938 449.621094 L 450.148438 449.621094 Z M 450.148438 427.691406 " fill-opacity="1" fill-rule="nonzero"/><path fill="#000000" d="M 450.148438 208.398438 L 472.085938 208.398438 L 472.085938 230.332031 L 450.148438 230.332031 Z M 450.148438 208.398438 " fill-opacity="1" fill-rule="nonzero"/><path fill="#000000" d="M 428.207031 405.765625 L 252.703125 405.765625 L 252.703125 427.691406 L 450.148438 427.691406 L 450.148438 405.765625 Z M 428.207031 405.765625 " fill-opacity="1" fill-rule="nonzero"/><path fill="#000000" d="M 362.390625 296.125 L 362.390625 318.050781 L 406.269531 318.050781 L 406.269531 296.125 Z M 362.390625 296.125 " fill-opacity="1" fill-rule="nonzero"/><path fill="#000000" d="M 296.582031 296.125 L 296.582031 318.050781 L 340.453125 318.050781 L 340.453125 296.125 Z M 296.582031 296.125 " fill-opacity="1" fill-rule="nonzero"/><path fill="#000000" d="M 274.640625 252.261719 L 450.148438 252.261719 L 450.148438 230.335938 L 252.703125 230.335938 L 252.703125 252.261719 Z M 274.640625 252.261719 " fill-opacity="1" fill-rule="nonzero"/><path fill="#000000" d="M 230.765625 427.691406 L 252.703125 427.691406 L 252.703125 449.621094 L 230.765625 449.621094 Z M 230.765625 427.691406 " fill-opacity="1" fill-rule="nonzero"/><path fill="#000000" d="M 230.765625 208.398438 L 252.703125 208.398438 L 252.703125 230.332031 L 230.765625 230.332031 Z M 230.765625 208.398438 " fill-opacity="1" fill-rule="nonzero"/><path fill="#000000" d="M 208.820312 449.621094 L 230.765625 449.621094 L 230.765625 471.554688 L 208.820312 471.554688 Z M 208.820312 449.621094 " fill-opacity="1" fill-rule="nonzero"/><path fill="#000000" d="M 186.886719 471.554688 L 208.820312 471.554688 L 208.820312 493.480469 L 186.886719 493.480469 Z M 186.886719 471.554688 " fill-opacity="1" fill-rule="nonzero"/><path fill="#000000" d="M 208.820312 274.1875 L 164.953125 274.1875 L 164.953125 296.125 L 143.011719 296.125 L 143.011719 339.976562 L 164.953125 339.976562 L 164.953125 361.90625 L 208.820312 361.90625 L 208.820312 339.976562 L 230.765625 339.976562 L 230.765625 296.125 L 208.820312 296.125 Z M 208.820312 274.1875 " fill-opacity="1" fill-rule="nonzero"/><path fill="#000000" d="M 186.886719 208.398438 L 230.765625 208.398438 L 230.765625 186.472656 L 143.011719 186.472656 L 143.011719 208.398438 Z M 186.886719 208.398438 " fill-opacity="1" fill-rule="nonzero"/><path fill="#000000" d="M 143.011719 493.484375 L 121.070312 493.484375 L 121.070312 515.410156 L 186.886719 515.410156 L 186.886719 493.484375 Z M 143.011719 493.484375 " fill-opacity="1" fill-rule="nonzero"/><path fill="#000000" d="M 121.070312 208.398438 L 143.011719 208.398438 L 143.011719 230.332031 L 121.070312 230.332031 Z M 121.070312 208.398438 " fill-opacity="1" fill-rule="nonzero"/><path fill="#000000" d="M 99.132812 471.554688 L 121.070312 471.554688 L 121.070312 493.480469 L 99.132812 493.480469 Z M 99.132812 471.554688 " fill-opacity="1" fill-rule="nonzero"/><path fill="#000000" d="M 99.132812 230.335938 L 121.070312 230.335938 L 121.070312 252.261719 L 99.132812 252.261719 Z M 99.132812 230.335938 " fill-opacity="1" fill-rule="nonzero"/><g clip-path="url(#eaef554680)"><path fill="#000000" d="M 99.132812 427.691406 L 99.132812 252.261719 L 77.199219 252.261719 L 77.199219 471.554688 L 99.132812 471.554688 Z M 99.132812 427.691406 " fill-opacity="1" fill-rule="nonzero"/></g></svg>